# xmcd
# 
# Track frame offsets:
#     150
#     12835
#     25485
#     38105
#     50717
#     62257
#     73562
#     87322
#     99870
#     111907
#     125420
#     136375
#     148887
#     163147
#     175027
#     188240
#     198600
#     210775
# 
# Disc length: 2963
# 
# Revision: 4
# Processed by: cddbd v1.5.2PL0 Copyright (c) Steve Scherf et al.
# Submitted via: fre:ac v1.0.17
# 
DISCID=fc0b9112
DTITLE=Various Artist - Blues Masters, Volume 2: Postwar Chicago 
DYEAR=1992
DGENRE=Blues
TTITLE0=Baby Face Leroy Trio - Rollin' and Tumblin Part 1
TTITLE1=Muddy Waters - Just Make Love To Me
TTITLE2=Jimmy Rogers And His Trio - That's All Right
TTITLE3=Little Walter And The Night Cats - Off The Wall
TTITLE4=Sonny Boy Williamson - Don't Start Me Talkin'
TTITLE5=Johnny Shines - Evening Sun
TTITLE6=Howlin' Wolf - Smokestack Lightnin'
TTITLE7=Bo Diddley - I'm A Man
TTITLE8=Eddie Boyd - Five Long Years
TTITLE9=Robert Jr. Lockwood - Sweet Woman (From Maine)
TTITLE10=J. B. Lenoir - Mama Talk To Your Daughter
TTITLE11=Jimmy Reed - Bright Lights Big City
TTITLE12=Jody Williams - You May
TTITLE13=Otis Rush - All Your Love (I Miss Loving)
TTITLE14=Magic Sam - All Your Love
TTITLE15=Buddy Guy - First Time I Met The Blues
TTITLE16=Earl Hooker - Blue Guitar
TTITLE17=Junior Wells - Little By Little
EXTD=
EXTT0=
EXTT1=
EXTT2=
EXTT3=
EXTT4=
EXTT5=
EXTT6=
EXTT7=
EXTT8=
EXTT9=
EXTT10=
EXTT11=
EXTT12=
EXTT13=
EXTT14=
EXTT15=
EXTT16=
EXTT17=
PLAYORDER=
